<?xml version="1.0" standalone="no"?>
<!DOCTYPE svg PUBLIC "-//W3C//DTD SVG 20010904//EN"
 "http://www.w3.org/TR/2001/REC-SVG-20010904/DTD/svg10.dtd">
<svg version="1.0" xmlns="http://www.w3.org/2000/svg"
 width="116.000000pt" height="116.000000pt" viewBox="0 0 116.000000 116.000000"
 preserveAspectRatio="xMidYMid meet">
<metadata>
Created by potrace 1.14, written by Peter Selinger 2001-2017
</metadata>
<g transform="translate(0.000000,116.000000) scale(0.100000,-0.100000)"
fill="#000000" stroke="none">
<path d="M0 580 l0 -580 440 0 c417 0 440 1 440 18 0 10 -5 23 -11 29 -12 12
-3 37 11 28 5 -3 11 4 15 15 3 11 12 20 18 20 15 0 47 76 47 110 0 14 12 70
26 125 65 252 74 293 74 341 0 60 50 223 80 261 20 26 27 53 12 53 -15 0 -74
-68 -68 -78 3 -6 -5 -24 -19 -40 -14 -16 -25 -37 -25 -45 0 -9 -4 -18 -9 -21
-11 -7 -21 43 -21 105 0 44 3 51 40 80 23 18 39 38 36 45 -3 7 10 24 28 38 19
14 36 37 38 51 l5 25 -123 0 c-90 0 -124 -3 -124 -12 0 -9 -3 -9 -12 0 -17 17
-41 15 -34 -3 3 -8 1 -15 -5 -15 -5 0 -12 7 -15 15 -5 12 -26 15 -102 15 -91
0 -98 -2 -156 -35 -34 -20 -79 -49 -101 -65 -22 -15 -41 -27 -43 -25 -8 8 32
55 46 55 14 0 112 57 112 66 0 2 -135 4 -300 4 l-300 0 0 -580z m1038 550 c35
-21 35 -21 26 -44 -9 -24 -30 -20 -82 16 -45 31 -46 32 -22 39 39 11 43 10 78
-11z m82 0 c0 -5 -2 -10 -4 -10 -3 0 -8 5 -11 10 -3 6 -1 10 4 10 6 0 11 -4
11 -10z m-404 -82 c-3 -15 -1 -28 4 -28 6 0 10 6 10 14 0 20 19 31 32 18 10
-10 -6 -75 -24 -96 -4 -5 -2 -16 4 -24 10 -11 9 -17 -6 -27 -12 -9 -16 -20
-11 -35 4 -12 1 -30 -9 -44 -17 -26 -11 -66 10 -66 17 0 18 12 3 27 -14 14 -3
33 18 33 11 0 14 7 10 27 -3 15 -1 34 3 42 19 39 29 68 32 90 2 17 12 27 32
34 33 11 49 -4 39 -40 -3 -14 -1 -23 6 -23 6 0 11 7 11 15 0 31 46 4 52 -30 2
-18 -30 -69 -74 -116 -10 -11 -18 -26 -18 -34 0 -8 -4 -15 -10 -15 -5 0 -10
-9 -10 -20 0 -10 -8 -24 -17 -29 -20 -12 -13 -14 11 -5 9 3 16 14 16 23 0 9
12 30 28 46 15 17 34 43 41 58 22 41 60 34 77 -14 10 -30 10 -42 -1 -63 -8
-14 -9 -26 -4 -26 5 0 12 7 15 15 9 22 24 18 24 -5 0 -25 -34 -87 -68 -123
-14 -15 -52 -37 -84 -49 -63 -22 -95 -48 -61 -48 17 0 62 -41 103 -94 14 -18
13 -19 -2 -13 -10 3 -18 3 -18 -2 0 -5 9 -11 20 -14 11 -3 20 -13 20 -22 0
-12 -5 -15 -20 -10 -12 4 -20 2 -20 -6 0 -9 -3 -9 -14 0 -8 7 -12 21 -9 31 4
15 0 20 -16 20 -19 0 -25 8 -18 28 1 4 5 6 8 5 4 -1 4 8 1 20 -3 12 -7 16 -10
9 -8 -24 -24 -12 -18 14 6 23 4 26 -13 21 -13 -3 -19 -1 -15 5 4 6 -2 8 -12 6
-13 -2 -21 -15 -25 -41 -9 -57 -1 -81 43 -127 32 -33 42 -39 54 -29 11 9 18 9
26 1 7 -7 20 -12 31 -12 12 0 17 -6 15 -17 -4 -22 -28 -29 -28 -9 0 18 -25 22
-35 6 -4 -7 -13 -7 -26 0 -15 9 -19 7 -19 -5 0 -8 -5 -15 -11 -15 -6 0 -8 8
-4 19 4 14 -4 29 -28 53 -30 29 -36 41 -41 97 -3 36 -8 66 -10 68 -2 2 -21 -5
-42 -16 -46 -25 -61 -27 -44 -6 10 12 10 16 -1 19 -69 20 -101 26 -109 21 -5
-3 -12 0 -15 5 -4 6 -20 10 -37 8 -17 -2 -29 1 -27 7 5 14 71 8 147 -12 60
-15 92 -12 62 7 -13 8 -12 10 2 10 9 0 20 -5 23 -10 4 -6 11 -8 16 -5 5 3 0
16 -11 27 -21 22 -19 41 2 20 14 -14 38 -16 38 -4 0 4 -17 18 -37 31 l-38 22
45 -6 45 -6 -35 20 c-20 11 -45 17 -57 14 -16 -4 -23 -1 -23 10 0 9 -12 18
-28 22 -15 3 -33 14 -39 24 -10 16 -9 18 15 16 15 -2 44 -10 64 -19 48 -21 51
-20 36 4 -7 11 -18 20 -25 20 -7 0 -13 9 -13 20 0 19 -14 25 -52 22 -10 -1
-18 2 -18 7 0 5 -11 12 -25 15 -16 4 -22 11 -19 21 7 17 37 20 65 5 10 -6 19
-8 19 -5 0 11 -35 45 -46 45 -7 0 -14 7 -18 15 -3 9 -16 20 -28 25 l-23 9 23
7 c14 4 22 14 22 28 0 11 5 28 11 36 9 13 10 13 8 0 -3 -19 25 -85 40 -94 10
-7 9 40 -3 121 -6 36 10 55 40 47 17 -5 21 -13 20 -49 -1 -24 -4 -46 -7 -49
-10 -10 13 -147 25 -143 13 4 15 173 2 229 -7 33 -6 37 16 40 34 6 51 -11 44
-44z m-316 -5 c-1 -12 -50 -45 -50 -34 0 5 7 17 16 25 16 17 34 21 34 9z m-10
-343 c0 -5 -4 -10 -10 -10 -5 0 -10 5 -10 10 0 6 5 10 10 10 6 0 10 -4 10 -10z
m67 -62 c-3 -8 -6 -5 -6 6 -1 11 2 17 5 13 3 -3 4 -12 1 -19z m135 -11 c14 -7
23 -18 20 -26 -2 -7 2 -17 9 -22 11 -7 11 -9 -3 -9 -9 0 -19 9 -23 19 -3 11
-12 22 -20 25 -8 3 -15 10 -15 16 0 13 3 13 32 -3z m8 -177 c-6 -11 -15 -20
-20 -20 -6 0 -5 9 2 20 7 11 16 20 21 20 4 0 3 -9 -3 -20z m180 10 c0 -5 -4
-10 -9 -10 -6 0 -13 5 -16 10 -3 6 1 10 9 10 9 0 16 -4 16 -10z m0 -40 c0 -5
-4 -10 -10 -10 -5 0 -10 5 -10 10 0 6 5 10 10 10 6 0 10 -4 10 -10z m49 -57
c2 -2 -3 -3 -11 -3 -9 0 -19 7 -22 16 -6 15 -4 15 11 3 10 -7 20 -15 22 -16z
m81 -14 c0 -6 -4 -7 -10 -4 -5 3 -10 11 -10 16 0 6 5 7 10 4 6 -3 10 -11 10
-16z m-183 -31 c-3 -8 -6 -5 -6 6 -1 11 2 17 5 13 3 -3 4 -12 1 -19z m13 -49
c0 -6 -4 -7 -10 -4 -5 3 -10 11 -10 16 0 6 5 7 10 4 6 -3 10 -11 10 -16z m120
-28 c0 -12 -20 -25 -27 -18 -7 7 6 27 18 27 5 0 9 -4 9 -9z m-60 -31 c0 -5 -7
-10 -16 -10 -8 0 -12 5 -9 10 3 6 10 10 16 10 5 0 9 -4 9 -10z m46 -47 c-6
-19 -64 -59 -72 -50 -3 3 12 21 33 40 40 38 48 40 39 10z m-676 -73 c0 -5 -4
-10 -9 -10 -6 0 -13 5 -16 10 -3 6 1 10 9 10 9 0 16 -4 16 -10z"/>
<path d="M590 1034 c0 -17 22 -14 28 4 2 7 -3 12 -12 12 -9 0 -16 -7 -16 -16z"/>
<path d="M721 724 c0 -11 3 -14 6 -6 3 7 2 16 -1 19 -3 4 -6 -2 -5 -13z"/>
<path d="M930 700 c0 -5 5 -10 10 -10 6 0 10 5 10 10 0 6 -4 10 -10 10 -5 0
-10 -4 -10 -10z"/>
<path d="M720 600 c0 -5 5 -10 11 -10 5 0 7 5 4 10 -3 6 -8 10 -11 10 -2 0 -4
-4 -4 -10z"/>
<path d="M1140 15 c-10 -12 -10 -15 4 -15 9 0 16 7 16 15 0 8 -2 15 -4 15 -2
0 -9 -7 -16 -15z"/>
</g>
</svg>
